<svg width="24" height="24" xmlns="http://www.w3.org/2000/svg">
 <title/>

 <desc/>
 <g>
  <title>background</title>
  <rect x="-1" y="-1" width="26" height="26" id="canvas_background" fill="none"/>
 </g>
 <g>
  <title>Layer 1</title>
  <path d="m11.999993,23.972124c6.597032,0 11.944987,-5.347963 11.944987,-11.945004c0,-6.597051 -5.347956,-11.945002 -11.944987,-11.945002c-6.597032,0 -11.944988,5.347952 -11.944988,11.945002c0,6.59704 5.347956,11.945004 11.944988,11.945004zm-5.669666,-16.28864l11.339334,0l-5.669667,4.736802l-5.669666,-4.736802zm12.185113,0.706797l0,7.215748l-4.329449,-3.60788l4.329449,-3.607879l0,0.00001zm-0.776455,7.980477l-11.477983,0l4.394464,-3.671437l1.344527,1.120506l1.344528,-1.120506l4.394464,3.671437zm-12.254439,-0.764729l0,-7.215748l4.329451,3.607868l-4.329451,3.60788z" fill="#ffffff" id="circle-social-email-glyph"/>
 </g>
</svg>