<svg width="24" height="24" xmlns="http://www.w3.org/2000/svg">
 <title>GitHub icon</title>

 <g>
  <title>background</title>
  <rect fill="none" id="canvas_background" height="402" width="582" y="-1" x="-1"/>
 </g>
 <g>
  <title>Layer 1</title>
  <path fill="#ffffff" id="svg_1" d="m12,0.297c-6.63,0 -12,5.373 -12,12c0,5.303 3.438,9.8 8.205,11.384999c0.6,0.113001 0.82,-0.257999 0.82,-0.577c0,-0.285 -0.009999,-1.039999 -0.014999,-2.039999c-3.338,0.723999 -4.042,-1.610001 -4.042,-1.610001c-0.546,-1.385 -1.335,-1.754999 -1.335,-1.754999c-1.087,-0.744001 0.084,-0.729 0.084,-0.729c1.205,0.084 1.838,1.236 1.838,1.236c1.07,1.834999 2.809,1.304998 3.495,0.997999c0.108,-0.775999 0.417,-1.305 0.76,-1.605c-2.665,-0.300001 -5.466001,-1.332001 -5.466001,-5.93c0,-1.31 0.465,-2.38 1.235,-3.22c-0.135,-0.302999 -0.54,-1.523 0.105,-3.176c0,0 1.005,-0.322 3.3,1.23c0.96,-0.267 1.98,-0.399 3,-0.405c1.02,0.006 2.04,0.138 3,0.405c2.28,-1.552 3.284999,-1.23 3.284999,-1.23c0.645,1.653 0.240002,2.873 0.120001,3.176c0.764999,0.84 1.23,1.91 1.23,3.22c0,4.610001 -2.805,5.625 -5.474999,5.92c0.42,0.360001 0.81,1.096001 0.81,2.219999c0,1.606001 -0.015,2.896 -0.015,3.286001c0,0.314999 0.21,0.689999 0.825,0.57c4.801001,-1.574001 8.236,-6.074001 8.236,-11.369c0,-6.627 -5.372999,-12 -12,-12"/>
 </g>
</svg>