<svg width="48" height="48.00004" xmlns="http://www.w3.org/2000/svg">

 <g>
  <title>background</title>
  <rect fill="none" id="canvas_background" height="50.00004" width="50" y="-1" x="-1"/>
 </g>
 <g>
  <title>Layer 1</title>
  <path canvas="#ffffff" canvas-opacity="1" id="svg_2" fill="#ffffff" d="m23.992468,0.036327c-13.227447,0 -23.9562,10.72875 -23.9562,23.956037c0,13.243208 10.728754,23.971964 23.9562,23.971964c13.243059,0 23.971815,-10.728756 23.971815,-23.971964c0,-13.227287 -10.728756,-23.956037 -23.971815,-23.956037zm-6.793318,35.965523c0,0.280941 -0.078085,0.359028 -0.359184,0.359028l-4.48203,0c-0.281099,0 -0.374803,-0.078087 -0.359185,-0.359028l0,-15.851067c-0.015617,-0.281258 0.093702,-0.374958 0.359185,-0.359343l4.48203,0c0.296717,-0.015615 0.359184,0.078085 0.359184,0.359343l0,15.851067zm-2.59239,-18.349758c-1.655382,0.015619 -3.014048,-1.358662 -3.014048,-3.014044c0,-1.561682 1.218114,-2.998429 2.99843,-3.014043c1.686617,0 3.029663,1.264962 3.029663,3.014043c0,1.717693 -1.311811,2.99827 -3.014046,3.014044zm21.332575,18.708786l-4.388327,0c-0.359184,0 -0.374804,-0.015461 -0.374804,-0.390419l0,-8.011267c0,-0.765381 -0.015615,-1.514832 -0.234251,-2.248825c-0.343573,-1.140026 -1.093178,-1.686615 -2.280056,-1.717846c-0.843309,-0.015774 -1.639767,0.140549 -2.248823,0.796455c-0.468504,0.515354 -0.687141,1.155647 -0.765224,1.827013c-0.062311,0.609213 -0.109318,1.233883 -0.109318,1.8584c-0.015615,2.514465 -0.015615,5.028769 0,7.543074c0,0.265331 -0.078085,0.343414 -0.343412,0.343414l-4.51342,0c-0.265486,0 -0.359184,-0.078083 -0.359184,-0.343414c0.015615,-5.294098 0.015615,-10.588352 0,-15.882296c0,-0.281105 0.093699,-0.343569 0.359184,-0.343569l4.3104,0c0.280947,0 0.359028,0.093699 0.359028,0.359184c-0.015615,0.577822 0,1.171261 0,1.749086c0.812231,-1.186878 1.905252,-1.96772 3.279535,-2.295675c1.592916,-0.390419 3.170216,-0.281103 4.669428,0.374804c1.452518,0.624676 2.23336,1.81155 2.639244,3.279531c0.281258,0.952627 0.406036,1.936485 0.421654,2.935963c0.015614,3.232677 0.031231,6.480976 0.047009,9.713654c-0.00016,0.452732 -0.00016,0.452732 -0.468662,0.452732z"/>
 </g>
</svg>