<svg width="485.213" height="485.212" xmlns="http://www.w3.org/2000/svg">

 <g>
  <title>background</title>
  <rect fill="none" id="canvas_background" height="487.212" width="487.213" y="-1" x="-1"/>
 </g>
 <g>
  <title>Layer 1</title>
  <path fill="#ffffff" id="svg_2" d="m242.606995,0c-133.977997,0 -242.605995,108.627998 -242.605995,242.606003c0,133.975998 108.627998,242.606003 242.60601,242.606003c133.977982,0 242.603989,-108.630981 242.603989,-242.606003c0.001007,-133.978004 -108.626007,-242.606003 -242.604004,-242.606003zm128.112,353.989014l-19.424988,19.429016c-3.468018,3.462982 -13.623016,5.623993 -13.949005,5.623993c-61.451996,0.53598 -120.621002,-23.60202 -164.095001,-67.080017c-43.593002,-43.617981 -67.75901,-102.998001 -67.110008,-164.656998c0,-0.028 2.223999,-9.891998 5.689003,-13.32399l19.423996,-19.427002c7.108002,-7.140999 20.762009,-10.368004 30.326996,-7.167999l4.085999,1.362999c9.537003,3.196999 19.550003,13.741997 22.185013,23.456993l9.770996,35.862c2.634995,9.743011 -0.919006,23.604004 -8.025009,30.712006l-12.969986,12.972c12.733994,47.141998 49.722992,84.138 96.873001,96.903015l12.964996,-12.975006c7.140991,-7.141022 20.997009,-10.692017 30.718994,-8.061005l35.856995,9.806c9.71701,2.669983 20.26001,12.619995 23.455994,22.153992l1.363007,4.144989c3.16803,9.537994 -0.033997,23.188995 -7.140991,30.265015z"/>
 </g>
</svg>